<svg version="1.2" xmlns="http://www.w3.org/2000/svg" viewBox="0 0 1920 279" width="1920" height="279">
	<style>
		.s0 { fill: #ffffff } 
	</style>
	<path id="CONOCENOS" class="s0" aria-label="CONOCENOS"  d="m403.1 171.7v36.5c0 18.3-8.1 24.9-20.8 24.9-12.8 0-20.8-6.6-20.8-24.9v-137.9c0-18.3 8-25.2 20.8-25.2 12.7 0 20.8 6.9 20.8 25.2v27.4h37.9v-24.9c0-40.8-20.4-64.2-59.8-64.2-39.4 0-59.9 23.4-59.9 64.2v132.9c0 40.9 20.5 64.2 59.9 64.2 39.4 0 59.8-23.3 59.8-64.2v-34zm99.4-101.4c0-18.3 8-25.2 20.8-25.2 12.8 0 20.8 6.9 20.8 25.2v137.9c0 18.3-8 25.2-20.8 25.2-12.8 0-20.8-6.9-20.8-25.2zm-40.1 135.4c0 40.9 21.5 64.3 60.9 64.3 39.4 0 61-23.4 61-64.3v-132.8c0-40.9-21.6-64.2-61-64.2-39.4 0-60.9 23.3-60.9 64.2zm233 61.3h41.3v-255.5h-35.8v153l-41.2-153h-50.4v255.5h36.1v-185zm107.1-196.7c0-18.3 8-25.2 20.8-25.2 12.8 0 20.8 6.9 20.8 25.2v137.9c0 18.3-8 25.2-20.8 25.2-12.8 0-20.8-6.9-20.8-25.2zm-40.1 135.4c0 40.9 21.5 64.2 60.9 64.2 39.4 0 61-23.3 61-64.2v-132.8c0-40.9-21.6-64.3-61-64.3-39.4 0-60.9 23.4-60.9 64.3zm226.7-34v36.5c0 18.3-8 24.8-20.8 24.8-12.8 0-20.8-6.5-20.8-24.8v-137.9c0-18.3 8-25.2 20.8-25.2 12.8 0 20.8 6.9 20.8 25.2v27.3h38v-24.8c0-40.8-20.5-64.2-59.9-64.2-39.4 0-59.8 23.4-59.8 64.2v132.9c0 40.8 20.4 64.2 59.8 64.2 39.4 0 59.9-23.4 59.9-64.2v-34zm101.7-123.7h69.3v-36.5h-109.5v255.5h109.5v-36.5h-69.3v-74.8h55.1v-36.5h-55.1zm180.6 219h41.2v-255.5h-35.8v152.9l-41.2-152.9h-50.4v255.5h36.2v-185.1zm107.1-196.7c0-18.2 8-25.2 20.8-25.2 12.7 0 20.8 7 20.8 25.2v138c0 18.2-8.1 25.1-20.8 25.1-12.8 0-20.8-6.9-20.8-25.1zm-40.2 135.4c0 40.8 21.6 64.2 61 64.2 39.4 0 60.9-23.4 60.9-64.2v-132.9c0-40.9-21.5-64.2-60.9-64.2-39.4 0-61 23.3-61 64.2zm142.2-132.8c0 73 78.5 82.8 78.5 135.4 0 18.2-8.1 24.8-20.8 24.8-12.8 0-20.8-6.6-20.8-24.8v-18.3h-38v15.7c0 40.9 20.4 64.2 59.9 64.2 39.4 0 59.8-23.3 59.8-64.2 0-73-78.5-82.8-78.5-135.4 0-18.2 7.3-25.2 20.1-25.2 12.8 0 20.1 7 20.1 25.2v10.6h37.9v-8c0-40.9-20-64.3-59.1-64.3-39 0-59.1 23.4-59.1 64.3z"/>
</svg>