<svg version="1.2" xmlns="http://www.w3.org/2000/svg" viewBox="0 0 1920 321" width="1920" height="321">
	<style>
		.s0 { fill: #ffffff } 
	</style>
	<path id="CONOCENOS" class="s0" aria-label="CONOCENOS"  d="m312.1 202.3v42.4c0 21.2-9.3 28.9-24.1 28.9-14.9 0-24.2-7.7-24.2-28.9v-160.2c0-21.2 9.3-29.3 24.2-29.3 14.8 0 24.1 8.1 24.1 29.3v31.8h44.1v-28.9c0-47.5-23.7-74.6-69.5-74.6-45.8 0-69.6 27.1-69.6 74.6v154.4c0 47.5 23.8 74.6 69.6 74.6 45.8 0 69.5-27.1 69.5-74.6v-39.5zm115.7-117.8c0-21.2 9.3-29.3 24.1-29.3 14.9 0 24.2 8.1 24.2 29.3v160.2c0 21.2-9.3 29.3-24.2 29.3-14.8 0-24.1-8.1-24.1-29.3zm-46.7 157.3c0 47.5 25.1 74.7 70.8 74.7 45.8 0 70.9-27.2 70.9-74.7v-154.3c0-47.5-25.1-74.6-70.9-74.6-45.7 0-70.8 27.1-70.8 74.6zm271.5 71.2h47.9v-296.8h-41.5v177.7l-48-177.7h-58.5v296.8h42v-214.9zm124.2-228.6c0-21.2 9.3-29.2 24.2-29.2 14.8 0 24.1 8 24.1 29.2v160.3c0 21.2-9.3 29.3-24.1 29.3-14.9 0-24.2-8.1-24.2-29.3zm-46.6 157.3c0 47.5 25 74.6 70.8 74.6 45.8 0 70.8-27.1 70.8-74.6v-154.3c0-47.5-25-74.7-70.8-74.7-45.8 0-70.8 27.2-70.8 74.7zm262.9-39.5v42.4c0 21.2-9.3 28.9-24.1 28.9-14.9 0-24.2-7.7-24.2-28.9v-160.2c0-21.2 9.3-29.3 24.2-29.3 14.8 0 24.1 8.1 24.1 29.3v31.8h44.1v-28.9c0-47.5-23.7-74.6-69.5-74.6-45.8 0-69.5 27.1-69.5 74.6v154.4c0 47.5 23.7 74.6 69.5 74.6 45.8 0 69.5-27.1 69.5-74.6v-39.5zm118.5-143.7h80.6v-42.4h-127.2v296.8h127.2v-42.4h-80.6v-86.9h64v-42.4h-64zm209 254.4h47.9v-296.8h-41.5v177.6l-47.9-177.6h-58.6v296.8h42v-215zm124.2-228.5c0-21.2 9.3-29.3 24.2-29.3 14.8 0 24.1 8.1 24.1 29.3v160.3c0 21.2-9.3 29.2-24.1 29.2-14.9 0-24.2-8-24.2-29.2zm-46.6 157.3c0 47.4 25 74.6 70.8 74.6 45.8 0 70.8-27.2 70.8-74.6v-154.4c0-47.5-25-74.6-70.8-74.6-45.8 0-70.8 27.1-70.8 74.6zm165.8-154.3c0 84.8 91.2 96.2 91.2 157.3 0 21.2-9.3 28.8-24.2 28.8-14.8 0-24.1-7.6-24.1-28.8v-21.2h-44.1v18.2c0 47.5 23.7 74.6 69.5 74.6 45.8 0 69.5-27.1 69.5-74.6 0-84.8-91.1-96.2-91.1-157.3 0-21.2 8.5-29.2 23.3-29.2 14.8 0 23.3 8 23.3 29.2v12.3h44.1v-9.3c0-47.5-23.3-74.6-68.7-74.6-45.3 0-68.7 27.1-68.7 74.6z"/>
</svg>